<mxfile host="65bd71144e">
    <diagram id="MYFiXkVj-ofIam6HPAuR" name="Page-1">
        <mxGraphModel dx="1640" dy="2213" grid="1" gridSize="10" guides="1" tooltips="1" connect="1" arrows="1" fold="1" page="1" pageScale="1" pageWidth="850" pageHeight="1100" math="0" shadow="0">
            <root>
                <mxCell id="0"/>
                <mxCell id="1" parent="0"/>
                <mxCell id="35" value="" style="rounded=0;whiteSpace=wrap;html=1;" vertex="1" parent="1">
                    <mxGeometry x="6.789999999999999" y="-340" width="365" height="170" as="geometry"/>
                </mxCell>
                <mxCell id="27" value="" style="shape=datastore;whiteSpace=wrap;html=1;" vertex="1" parent="1">
                    <mxGeometry y="-50" width="380" height="540" as="geometry"/>
                </mxCell>
                <mxCell id="17" value="topics" style="swimlane;childLayout=stackLayout;horizontal=1;startSize=50;horizontalStack=0;rounded=1;fontSize=14;fontStyle=0;strokeWidth=2;resizeParent=0;resizeLast=1;shadow=0;dashed=0;align=center;arcSize=4;whiteSpace=wrap;html=1;" vertex="1" parent="1">
                    <mxGeometry x="20" y="150" width="160" height="110" as="geometry"/>
                </mxCell>
                <mxCell id="18" value="_ID&lt;div&gt;name&lt;/div&gt;&lt;div&gt;description&lt;/div&gt;" style="align=left;strokeColor=none;fillColor=none;spacingLeft=4;fontSize=12;verticalAlign=top;resizable=0;rotatable=0;part=1;html=1;" vertex="1" parent="17">
                    <mxGeometry y="50" width="160" height="60" as="geometry"/>
                </mxCell>
                <mxCell id="19" value="problems" style="swimlane;childLayout=stackLayout;horizontal=1;startSize=50;horizontalStack=0;rounded=1;fontSize=14;fontStyle=0;strokeWidth=2;resizeParent=0;resizeLast=1;shadow=0;dashed=0;align=center;arcSize=4;whiteSpace=wrap;html=1;" vertex="1" parent="1">
                    <mxGeometry x="20" y="280" width="160" height="160" as="geometry"/>
                </mxCell>
                <mxCell id="20" value="_ID&lt;div&gt;Leetcode_ID&lt;/div&gt;&lt;div&gt;Title&lt;br&gt;Difficulty&lt;br&gt;Topic_ID&lt;/div&gt;&lt;div&gt;Estimated_Time&lt;br&gt;URL&lt;/div&gt;" style="align=left;strokeColor=none;fillColor=none;spacingLeft=4;fontSize=12;verticalAlign=top;resizable=0;rotatable=0;part=1;html=1;" vertex="1" parent="19">
                    <mxGeometry y="50" width="160" height="110" as="geometry"/>
                </mxCell>
                <mxCell id="23" value="user_progress" style="swimlane;childLayout=stackLayout;horizontal=1;startSize=50;horizontalStack=0;rounded=1;fontSize=14;fontStyle=0;strokeWidth=2;resizeParent=0;resizeLast=1;shadow=0;dashed=0;align=center;arcSize=4;whiteSpace=wrap;html=1;" vertex="1" parent="1">
                    <mxGeometry x="200" y="150" width="160" height="120" as="geometry"/>
                </mxCell>
                <mxCell id="24" value="_UID&lt;br&gt;topic_ID&lt;br&gt;completed_Problems&lt;br&gt;Topic_checkpoint_score" style="align=left;strokeColor=none;fillColor=none;spacingLeft=4;fontSize=12;verticalAlign=top;resizable=0;rotatable=0;part=1;html=1;" vertex="1" parent="23">
                    <mxGeometry y="50" width="160" height="70" as="geometry"/>
                </mxCell>
                <mxCell id="28" value="&lt;h1 style=&quot;margin-top: 0px;&quot;&gt;MongoDB&lt;br&gt;&lt;br&gt;LeetcodePrepPro&lt;/h1&gt;" style="text;html=1;whiteSpace=wrap;overflow=hidden;rounded=0;align=center;" vertex="1" parent="1">
                    <mxGeometry x="70" y="-40" width="220" height="120" as="geometry"/>
                </mxCell>
                <mxCell id="33" value="" style="rounded=0;whiteSpace=wrap;html=1;" vertex="1" parent="1">
                    <mxGeometry x="6.789999999999999" y="-340" width="95" height="170" as="geometry"/>
                </mxCell>
                <mxCell id="31" value="Chat&lt;div&gt;Progress&lt;br&gt;Resources&lt;br&gt;Settings&lt;/div&gt;" style="text;html=1;align=center;verticalAlign=middle;whiteSpace=wrap;rounded=0;" vertex="1" parent="1">
                    <mxGeometry x="24.29" y="-270" width="60" height="30" as="geometry"/>
                </mxCell>
                <mxCell id="34" value="" style="swimlane;startSize=0;" vertex="1" parent="1">
                    <mxGeometry x="101.78999999999999" y="-340" width="150" height="170" as="geometry"/>
                </mxCell>
                <mxCell id="36" value="ChatBot Input" style="text;html=1;align=center;verticalAlign=middle;whiteSpace=wrap;rounded=0;" vertex="1" parent="1">
                    <mxGeometry x="101.78999999999999" y="-200" width="150" height="30" as="geometry"/>
                </mxCell>
                <mxCell id="37" value="" style="rounded=1;whiteSpace=wrap;html=1;labelBackgroundColor=#CCE5FF;" vertex="1" parent="1">
                    <mxGeometry x="101.78999999999999" y="-230" width="60" height="20" as="geometry"/>
                </mxCell>
                <mxCell id="38" value="" style="rounded=1;whiteSpace=wrap;html=1;labelBackgroundColor=#CCE5FF;" vertex="1" parent="1">
                    <mxGeometry x="191.79" y="-250" width="60" height="20" as="geometry"/>
                </mxCell>
                <mxCell id="39" value="" style="rounded=1;whiteSpace=wrap;html=1;labelBackgroundColor=#CCE5FF;" vertex="1" parent="1">
                    <mxGeometry x="101.78999999999999" y="-280" width="60" height="20" as="geometry"/>
                </mxCell>
                <mxCell id="40" value="" style="rounded=1;whiteSpace=wrap;html=1;labelBackgroundColor=#CCE5FF;" vertex="1" parent="1">
                    <mxGeometry x="191.79" y="-310" width="60" height="20" as="geometry"/>
                </mxCell>
                <mxCell id="41" value="" style="rounded=1;whiteSpace=wrap;html=1;labelBackgroundColor=#CCE5FF;" vertex="1" parent="1">
                    <mxGeometry x="101.78999999999999" y="-340" width="60" height="20" as="geometry"/>
                </mxCell>
                <mxCell id="42" value="" style="endArrow=none;html=1;entryX=1;entryY=0;entryDx=0;entryDy=0;exitX=0;exitY=0;exitDx=0;exitDy=0;" edge="1" parent="1" source="36" target="36">
                    <mxGeometry width="50" height="50" relative="1" as="geometry">
                        <mxPoint x="101.78999999999999" y="-190" as="sourcePoint"/>
                        <mxPoint x="151.79" y="-240" as="targetPoint"/>
                    </mxGeometry>
                </mxCell>
                <mxCell id="49" style="edgeStyle=none;html=1;" edge="1" parent="1" source="43" target="35">
                    <mxGeometry relative="1" as="geometry"/>
                </mxCell>
                <mxCell id="43" value="" style="rounded=1;whiteSpace=wrap;html=1;" vertex="1" parent="1">
                    <mxGeometry x="251.79" y="-335" width="120" height="155" as="geometry"/>
                </mxCell>
                <mxCell id="44" value="Topic" style="text;html=1;align=center;verticalAlign=middle;whiteSpace=wrap;rounded=0;" vertex="1" parent="1">
                    <mxGeometry x="281.79" y="-335" width="60" height="30" as="geometry"/>
                </mxCell>
                <mxCell id="45" value="TotalTimeEstimate" style="text;html=1;align=center;verticalAlign=middle;whiteSpace=wrap;rounded=0;" vertex="1" parent="1">
                    <mxGeometry x="281.79" y="-315" width="60" height="30" as="geometry"/>
                </mxCell>
                <mxCell id="46" value="Description" style="text;html=1;align=center;verticalAlign=middle;whiteSpace=wrap;rounded=0;" vertex="1" parent="1">
                    <mxGeometry x="281.79" y="-300" width="60" height="30" as="geometry"/>
                </mxCell>
                <mxCell id="48" value="Resources&lt;div&gt;1&lt;/div&gt;&lt;div&gt;2&lt;/div&gt;&lt;div&gt;3&lt;/div&gt;" style="text;html=1;align=left;verticalAlign=middle;whiteSpace=wrap;rounded=0;" vertex="1" parent="1">
                    <mxGeometry x="251.79" y="-260" width="60" height="30" as="geometry"/>
                </mxCell>
                <mxCell id="50" value="Practice Problems" style="text;html=1;align=center;verticalAlign=middle;whiteSpace=wrap;rounded=0;" vertex="1" parent="1">
                    <mxGeometry x="261.79" y="-220" width="100" height="30" as="geometry"/>
                </mxCell>
                <mxCell id="82" value="" style="edgeStyle=none;html=1;" edge="1" parent="1" source="76" target="79">
                    <mxGeometry relative="1" as="geometry"/>
                </mxCell>
                <mxCell id="83" style="edgeStyle=none;html=1;exitX=0.25;exitY=1;exitDx=0;exitDy=0;entryX=0.5;entryY=0;entryDx=0;entryDy=0;" edge="1" parent="1" source="76" target="78">
                    <mxGeometry relative="1" as="geometry"/>
                </mxCell>
                <mxCell id="76" value="Does User Input Contain Their Availability" style="rounded=0;whiteSpace=wrap;html=1;" vertex="1" parent="1">
                    <mxGeometry x="580" y="-330" width="120" height="60" as="geometry"/>
                </mxCell>
                <mxCell id="91" style="edgeStyle=none;html=1;exitX=0.5;exitY=1;exitDx=0;exitDy=0;entryX=0.5;entryY=0;entryDx=0;entryDy=0;" edge="1" parent="1" source="78" target="90">
                    <mxGeometry relative="1" as="geometry"/>
                </mxCell>
                <mxCell id="78" value="Yes" style="rounded=0;whiteSpace=wrap;html=1;" vertex="1" parent="1">
                    <mxGeometry x="570" y="-240" width="40" height="20" as="geometry"/>
                </mxCell>
                <mxCell id="88" style="edgeStyle=none;html=1;exitX=0.5;exitY=1;exitDx=0;exitDy=0;entryX=0.5;entryY=0;entryDx=0;entryDy=0;" edge="1" parent="1" source="79" target="86">
                    <mxGeometry relative="1" as="geometry"/>
                </mxCell>
                <mxCell id="79" value="No" style="rounded=0;whiteSpace=wrap;html=1;" vertex="1" parent="1">
                    <mxGeometry x="670" y="-240" width="40" height="20" as="geometry"/>
                </mxCell>
                <mxCell id="85" value="Agent DataFlow" style="swimlane;whiteSpace=wrap;html=1;" vertex="1" parent="1">
                    <mxGeometry x="460" y="-357.5" width="440" height="1127.5" as="geometry"/>
                </mxCell>
                <mxCell id="86" value="Prompt the user for their availability." style="rounded=0;whiteSpace=wrap;html=1;" vertex="1" parent="85">
                    <mxGeometry x="220" y="157.5" width="120" height="60" as="geometry"/>
                </mxCell>
                <mxCell id="95" style="edgeStyle=none;html=1;exitX=0.25;exitY=1;exitDx=0;exitDy=0;entryX=0.5;entryY=0;entryDx=0;entryDy=0;" edge="1" parent="85" source="90" target="93">
                    <mxGeometry relative="1" as="geometry"/>
                </mxCell>
                <mxCell id="96" style="edgeStyle=none;html=1;exitX=0.75;exitY=1;exitDx=0;exitDy=0;entryX=0.5;entryY=0;entryDx=0;entryDy=0;" edge="1" parent="85" source="90" target="94">
                    <mxGeometry relative="1" as="geometry"/>
                </mxCell>
                <mxCell id="90" value="Does An Active Card Exist&lt;div&gt;&lt;br&gt;&lt;/div&gt;" style="rounded=0;whiteSpace=wrap;html=1;" vertex="1" parent="85">
                    <mxGeometry x="60" y="157.5" width="120" height="60" as="geometry"/>
                </mxCell>
                <mxCell id="104" style="edgeStyle=none;html=1;exitX=0.5;exitY=1;exitDx=0;exitDy=0;entryX=0;entryY=0;entryDx=0;entryDy=0;" edge="1" parent="85" source="93" target="103">
                    <mxGeometry relative="1" as="geometry"/>
                </mxCell>
                <mxCell id="93" value="Yes" style="rounded=0;whiteSpace=wrap;html=1;" vertex="1" parent="85">
                    <mxGeometry x="50" y="247.5" width="40" height="20" as="geometry"/>
                </mxCell>
                <mxCell id="98" style="edgeStyle=none;html=1;exitX=0.5;exitY=1;exitDx=0;exitDy=0;entryX=0.5;entryY=0;entryDx=0;entryDy=0;" edge="1" parent="85" source="94" target="97">
                    <mxGeometry relative="1" as="geometry"/>
                </mxCell>
                <mxCell id="94" value="No" style="rounded=0;whiteSpace=wrap;html=1;" vertex="1" parent="85">
                    <mxGeometry x="150" y="247.5" width="40" height="20" as="geometry"/>
                </mxCell>
                <mxCell id="101" style="edgeStyle=none;html=1;exitX=0.5;exitY=1;exitDx=0;exitDy=0;entryX=0.5;entryY=0;entryDx=0;entryDy=0;" edge="1" parent="85" source="97" target="99">
                    <mxGeometry relative="1" as="geometry"/>
                </mxCell>
                <mxCell id="97" value="Pull Next Topic From List" style="rounded=0;whiteSpace=wrap;html=1;" vertex="1" parent="85">
                    <mxGeometry x="220" y="307.5" width="120" height="60" as="geometry"/>
                </mxCell>
                <mxCell id="102" style="edgeStyle=none;html=1;exitX=0.5;exitY=1;exitDx=0;exitDy=0;entryX=0.5;entryY=0;entryDx=0;entryDy=0;" edge="1" parent="85" source="99" target="100">
                    <mxGeometry relative="1" as="geometry"/>
                </mxCell>
                <mxCell id="99" value="Agent generates resources and attaches problems" style="rounded=0;whiteSpace=wrap;html=1;" vertex="1" parent="85">
                    <mxGeometry x="220" y="387.5" width="120" height="60" as="geometry"/>
                </mxCell>
                <mxCell id="105" style="edgeStyle=none;html=1;exitX=0.5;exitY=1;exitDx=0;exitDy=0;entryX=1;entryY=0;entryDx=0;entryDy=0;" edge="1" parent="85" source="100" target="103">
                    <mxGeometry relative="1" as="geometry"/>
                </mxCell>
                <mxCell id="100" value="Card is output to user and set as the active card" style="rounded=0;whiteSpace=wrap;html=1;" vertex="1" parent="85">
                    <mxGeometry x="220" y="467.5" width="120" height="60" as="geometry"/>
                </mxCell>
                <mxCell id="107" style="edgeStyle=none;html=1;exitX=0.5;exitY=1;exitDx=0;exitDy=0;entryX=0.5;entryY=0;entryDx=0;entryDy=0;" edge="1" parent="85" source="103" target="106">
                    <mxGeometry relative="1" as="geometry"/>
                </mxCell>
                <mxCell id="103" value="Agent processes information on the active card to estimate task times" style="rounded=0;whiteSpace=wrap;html=1;" vertex="1" parent="85">
                    <mxGeometry x="120" y="557.5" width="120" height="60" as="geometry"/>
                </mxCell>
                <mxCell id="109" style="edgeStyle=none;html=1;exitX=0.5;exitY=1;exitDx=0;exitDy=0;entryX=0.5;entryY=0;entryDx=0;entryDy=0;" edge="1" parent="85" source="106" target="108">
                    <mxGeometry relative="1" as="geometry"/>
                </mxCell>
                <mxCell id="106" value="Agent dynamically schedules which task/resources to work on based on time availability" style="rounded=0;whiteSpace=wrap;html=1;" vertex="1" parent="85">
                    <mxGeometry x="120" y="637.5" width="120" height="72.5" as="geometry"/>
                </mxCell>
                <mxCell id="115" style="edgeStyle=none;html=1;exitX=0.5;exitY=1;exitDx=0;exitDy=0;entryX=0.5;entryY=0;entryDx=0;entryDy=0;" edge="1" parent="85" source="108" target="112">
                    <mxGeometry relative="1" as="geometry"/>
                </mxCell>
                <mxCell id="108" value="User Checks off tasks as they are completed" style="rounded=0;whiteSpace=wrap;html=1;" vertex="1" parent="85">
                    <mxGeometry x="120" y="737.5" width="120" height="60" as="geometry"/>
                </mxCell>
                <mxCell id="116" style="edgeStyle=none;html=1;exitX=0.5;exitY=1;exitDx=0;exitDy=0;entryX=0.5;entryY=0;entryDx=0;entryDy=0;" edge="1" parent="85" source="112" target="113">
                    <mxGeometry relative="1" as="geometry"/>
                </mxCell>
                <mxCell id="112" value="When all task are completed, generate knowledge check" style="rounded=0;whiteSpace=wrap;html=1;" vertex="1" parent="85">
                    <mxGeometry x="120" y="827.5" width="120" height="60" as="geometry"/>
                </mxCell>
                <mxCell id="120" style="edgeStyle=none;html=1;exitX=0.25;exitY=1;exitDx=0;exitDy=0;entryX=0.5;entryY=0;entryDx=0;entryDy=0;" edge="1" parent="85" source="113" target="117">
                    <mxGeometry relative="1" as="geometry"/>
                </mxCell>
                <mxCell id="121" style="edgeStyle=none;html=1;exitX=0.75;exitY=1;exitDx=0;exitDy=0;entryX=0.5;entryY=0;entryDx=0;entryDy=0;" edge="1" parent="85" source="113" target="118">
                    <mxGeometry relative="1" as="geometry"/>
                </mxCell>
                <mxCell id="113" value="Did user get above &quot;Passing Score&quot;" style="rounded=0;whiteSpace=wrap;html=1;" vertex="1" parent="85">
                    <mxGeometry x="120" y="917.5" width="120" height="60" as="geometry"/>
                </mxCell>
                <mxCell id="125" style="edgeStyle=none;html=1;exitX=0.5;exitY=1;exitDx=0;exitDy=0;entryX=0.5;entryY=0;entryDx=0;entryDy=0;" edge="1" parent="85" source="117" target="124">
                    <mxGeometry relative="1" as="geometry"/>
                </mxCell>
                <mxCell id="117" value="Yes" style="rounded=0;whiteSpace=wrap;html=1;" vertex="1" parent="85">
                    <mxGeometry x="110" y="997.5" width="40" height="20" as="geometry"/>
                </mxCell>
                <mxCell id="118" value="No" style="rounded=0;whiteSpace=wrap;html=1;" vertex="1" parent="85">
                    <mxGeometry x="210" y="997.5" width="40" height="20" as="geometry"/>
                </mxCell>
                <mxCell id="119" style="edgeStyle=none;html=1;exitX=0.5;exitY=1;exitDx=0;exitDy=0;entryX=0.5;entryY=0;entryDx=0;entryDy=0;" edge="1" parent="85">
                    <mxGeometry relative="1" as="geometry">
                        <mxPoint x="240" y="1638" as="sourcePoint"/>
                        <mxPoint x="240" y="1668" as="targetPoint"/>
                    </mxGeometry>
                </mxCell>
                <mxCell id="123" value="" style="curved=1;endArrow=classic;html=1;exitX=1;exitY=0.25;exitDx=0;exitDy=0;entryX=1;entryY=0.5;entryDx=0;entryDy=0;" edge="1" parent="85" source="118" target="112">
                    <mxGeometry width="50" height="50" relative="1" as="geometry">
                        <mxPoint x="260" y="1007.5" as="sourcePoint"/>
                        <mxPoint x="310" y="957.5" as="targetPoint"/>
                        <Array as="points">
                            <mxPoint x="310" y="1007.5"/>
                            <mxPoint x="330" y="917.5"/>
                            <mxPoint x="310" y="877.5"/>
                            <mxPoint x="270" y="857.5"/>
                        </Array>
                    </mxGeometry>
                </mxCell>
                <mxCell id="124" value="Mark Topic As Complete" style="rounded=0;whiteSpace=wrap;html=1;" vertex="1" parent="85">
                    <mxGeometry x="70" y="1057.5" width="120" height="60" as="geometry"/>
                </mxCell>
                <mxCell id="126" value="" style="curved=1;endArrow=classic;html=1;exitX=1;exitY=0.5;exitDx=0;exitDy=0;entryX=1;entryY=0.5;entryDx=0;entryDy=0;" edge="1" parent="85" source="124" target="97">
                    <mxGeometry width="50" height="50" relative="1" as="geometry">
                        <mxPoint x="330" y="1087.5" as="sourcePoint"/>
                        <mxPoint x="380" y="1037.5" as="targetPoint"/>
                        <Array as="points">
                            <mxPoint x="280" y="1087.5"/>
                            <mxPoint x="350" y="1087.5"/>
                            <mxPoint x="390" y="1067.5"/>
                            <mxPoint x="390" y="1027.5"/>
                            <mxPoint x="390" y="667.5"/>
                            <mxPoint x="390" y="347.5"/>
                        </Array>
                    </mxGeometry>
                </mxCell>
                <mxCell id="110" style="edgeStyle=none;html=1;exitX=0;exitY=0.5;exitDx=0;exitDy=0;entryX=1;entryY=0.5;entryDx=0;entryDy=0;" edge="1" parent="1" source="108" target="24">
                    <mxGeometry relative="1" as="geometry"/>
                </mxCell>
                <mxCell id="111" value="Update Completed_Problems" style="edgeLabel;html=1;align=center;verticalAlign=middle;resizable=0;points=[];" vertex="1" connectable="0" parent="110">
                    <mxGeometry x="-0.0508" y="-1" relative="1" as="geometry">
                        <mxPoint as="offset"/>
                    </mxGeometry>
                </mxCell>
            </root>
        </mxGraphModel>
    </diagram>
</mxfile>